# xmcd
#
# Track frame offsets: 
#        150
#        21113
#        35983
#        47498
#        61450
#        76278
#        92953
#        109313
#        124595
#        140758
#        155735
#        171895
#
# Disc length: 2532 seconds
#
# Revision: 7
# Processed by: cddbd v1.5.2PL0 Copyright (c) Steve Scherf et al.
# Submitted via: ExactAudioCopy v1.0b3
#
DISCID=a909e20c
DTITLE=Toby Keith - Christmas To Christmas
DYEAR=1995
DGENRE=Christmas
TTITLE0=Santa I'm Right Here
TTITLE1=Bethlehem In Birmingham
TTITLE2=Christmas Rock
TTITLE3=Blame It On The Mistletoe
TTITLE4=Santa's Gonna Take It All Back
TTITLE5=The Night Before Christmas
TTITLE6=Hot Rod Sleigh
TTITLE7=Christmas To Christmas
TTITLE8=Jesus Gets Jealous Of Santa Claus
TTITLE9=Mary, It's Christmas
TTITLE10=All I Want For Christmas
TTITLE11=What Made The Baby Cry?
EXTD=YEAR: 1995
EXTT0=
EXTT1=
EXTT2=
EXTT3=
EXTT4=
EXTT5=
EXTT6=
EXTT7=
EXTT8=
EXTT9=
EXTT10=
EXTT11=
PLAYORDER=
